<svg xmlns="http://www.w3.org/2000/svg" viewBox="0 0 512 512">
  <defs>
    <linearGradient id="bg" x1="0" y1="0" x2="1" y2="1">
      <stop offset="0" stop-color="#ffc2a8"/>
      <stop offset="1" stop-color="#ee7397"/>
    </linearGradient>
    <linearGradient id="pin" x1="0" y1="0" x2="0" y2="1">
      <stop offset="0" stop-color="#ffffff"/>
      <stop offset="1" stop-color="#fff1f4"/>
    </linearGradient>
  </defs>
  <rect width="512" height="512" fill="url(#bg)"/>
  <!-- 足もとの影 -->
  <ellipse cx="256" cy="392" rx="62" ry="14" fill="#c9506f" opacity=".28"/>
  <!-- ピン（丸みを強めに） -->
  <path d="M256 384 C 232 350, 158 286, 158 214 A 98 98 0 0 1 354 214 C 354 286, 280 350, 256 384 Z" fill="url(#pin)"/>
  <!-- ピンの中：にっこり顔 -->
  <circle cx="256" cy="212" r="56" fill="#f58aa5"/>
  <circle cx="234" cy="204" r="7" fill="#fff"/>
  <circle cx="278" cy="204" r="7" fill="#fff"/>
  <path d="M240 226 Q 256 240 272 226" stroke="#fff" stroke-width="7" stroke-linecap="round" fill="none"/>
  <!-- きらきら -->
  <path d="M372 118 Q 376 140 398 144 Q 376 148 372 170 Q 368 148 346 144 Q 368 140 372 118 Z" fill="#fff"/>
  <path d="M138 300 Q 141 314 155 317 Q 141 320 138 334 Q 135 320 121 317 Q 135 314 138 300 Z" fill="#fff" opacity=".9"/>
  <circle cx="404" cy="214" r="7" fill="#fff" opacity=".8"/>
</svg>
